<?xml version="1.0" encoding="UTF-8"?>
<svg xmlns="http://www.w3.org/2000/svg" xmlns:xlink="http://www.w3.org/1999/xlink" width="400pt" height="400pt" viewBox="0 0 400 400" version="1.1">
<g id="surface1">
<path style=" stroke:none;fill-rule:nonzero;fill:rgb(100%,100%,100%);fill-opacity:1;" d="M 113.199219 349.679688 L 27.601562 300.160156 L 27.601562 99.839844 L 113.199219 50.320312 C 166.71875 19.359375 199.359375 0.878906 200.398438 1.121094 C 201.28125 1.199219 240.320312 23.519531 287.199219 50.558594 L 372.398438 99.839844 L 372.398438 300.160156 L 332 323.519531 C 309.761719 336.320312 271.199219 358.640625 246.238281 373.039062 C 221.359375 387.441406 200.480469 399.199219 199.839844 399.199219 C 199.28125 399.121094 160.320312 376.878906 113.199219 349.679688 Z M 182.398438 269.359375 C 182.398438 247.199219 182.640625 239.28125 183.359375 238.558594 C 184.71875 237.199219 215.28125 237.199219 216.640625 238.558594 C 217.359375 239.28125 217.601562 247.199219 217.601562 269.359375 L 217.601562 299.199219 L 239.601562 299.199219 C 261.121094 299.199219 261.601562 299.199219 263.199219 297.441406 C 264.800781 295.761719 264.800781 294.960938 264.800781 237.039062 L 264.800781 178.398438 L 135.199219 178.398438 L 135.199219 237.039062 C 135.199219 294.960938 135.199219 295.761719 136.800781 297.441406 C 138.398438 299.199219 138.878906 299.199219 160.398438 299.199219 L 182.398438 299.199219 Z M 292.800781 170.960938 C 292.160156 170.320312 270.960938 154.480469 245.839844 135.679688 L 200 101.441406 L 154.238281 135.679688 C 129.039062 154.480469 107.839844 170.320312 107.199219 170.878906 C 106.238281 171.839844 120.960938 172 200 172 C 278.480469 172 293.761719 171.839844 292.800781 170.960938 Z M 292.800781 170.960938 "/>
</g>
</svg>
