<svg xmlns="http://www.w3.org/2000/svg" xmlns:xlink="http://www.w3.org/1999/xlink" width="259" height="299" version="1.1" style=""><rect id="backgroundrect" width="100%" height="100%" x="0" y="0" fill="none" stroke="none"/>

<g class="currentLayer" style=""><title>Layer 1</title><g id="surface1" class="" fill="#4141e8" fill-opacity="1" opacity="0.98">
<path style="stroke: none; fill-rule: nonzero;" d="M64.19921925,261.4235994931641 L2.499999993688107e-7,224.28297449316406 L2.499999993688107e-7,74.04078649316406 L64.19921925,36.90016149316406 C104.33984325,13.681411493164063 128.82031225,-0.17796350683593742 129.60156225,0.001724493164062646 C130.26171925,0.06031849316406257 159.53906225,16.802505493164062 194.69921925,37.08375549316406 L258.60156225,74.04078649316406 L258.60156225,224.28297449316406 L228.30078125,241.80250549316406 C211.62109325,251.40016149316406 182.69921925,268.1423494931641 163.98046925,278.94313049316406 C145.32031225,289.74000549316406 129.66015625,298.56031849316406 129.17968725,298.56031849316406 C128.76171925,298.5017244931641 99.53906225,281.82203649316403 64.19921925,261.4235994931641 zM116.10156225,201.18141149316406 C116.10156225,184.56031849316406 116.28125025,178.62281849316406 116.82031225,178.08375549316406 C117.83984325,177.06031849316406 140.76171925,177.06031849316406 141.78125025,178.08375549316406 C142.32031225,178.62281849316406 142.50000025,184.56031849316406 142.50000025,201.18141149316406 L142.50000025,223.56031849316406 L159.00000025,223.56031849316406 C175.14062525,223.56031849316406 175.50000025,223.56031849316406 176.69921925,222.24000549316406 C177.90234325,220.98219249316406 177.90234325,220.38063049316406 177.90234325,176.94313049316406 L177.90234325,132.96266149316406 L80.69921925,132.96266149316406 L80.69921925,176.94313049316406 C80.69921925,220.38063049316406 80.69921925,220.98219249316406 81.90234325,222.24000549316406 C83.10156225,223.56031849316406 83.46093725,223.56031849316406 99.60156225,223.56031849316406 L116.10156225,223.56031849316406 zM198.90234325,127.38063049316406 C198.42187525,126.90016149316406 182.51953125,115.02125549316406 163.67968725,100.92359949316406 L129.30078125,75.24000549316406 L94.98046925,100.92359949316406 C76.08203125,115.02125549316406 60.17968725,126.90016149316406 59.69921925,127.32203649316406 C58.98046925,128.04078649316406 70.01953125,128.16188049316406 129.30078125,128.16188049316406 C188.16015625,128.16188049316406 199.62109325,128.04078649316406 198.90234325,127.38063049316406 zM198.90234325,127.38063049316406 " id="svg_1" fill="#4141e8" fill-opacity="1" opacity="0.98"/>
</g></g></svg>