<?xml version="1.0" encoding="UTF-8"?>
<svg xmlns="http://www.w3.org/2000/svg" xmlns:xlink="http://www.w3.org/1999/xlink" width="300pt" height="300pt" viewBox="0 0 300 300" version="1.1">
<g id="surface1">
<path style=" stroke:none;fill-rule:nonzero;fill:rgb(9.803922%,83.921569%,63.921569%);fill-opacity:1;" d="M 84.898438 262.261719 L 20.699219 225.121094 L 20.699219 74.878906 L 84.898438 37.738281 C 125.039062 14.519531 149.519531 0.660156 150.300781 0.839844 C 150.960938 0.898438 180.238281 17.640625 215.398438 37.921875 L 279.300781 74.878906 L 279.300781 225.121094 L 249 242.640625 C 232.320312 252.238281 203.398438 268.980469 184.679688 279.78125 C 166.019531 290.578125 150.359375 299.398438 149.878906 299.398438 C 149.460938 299.339844 120.238281 282.660156 84.898438 262.261719 Z M 136.800781 202.019531 C 136.800781 185.398438 136.980469 179.460938 137.519531 178.921875 C 138.539062 177.898438 161.460938 177.898438 162.480469 178.921875 C 163.019531 179.460938 163.199219 185.398438 163.199219 202.019531 L 163.199219 224.398438 L 179.699219 224.398438 C 195.839844 224.398438 196.199219 224.398438 197.398438 223.078125 C 198.601562 221.820312 198.601562 221.21875 198.601562 177.78125 L 198.601562 133.800781 L 101.398438 133.800781 L 101.398438 177.78125 C 101.398438 221.21875 101.398438 221.820312 102.601562 223.078125 C 103.800781 224.398438 104.160156 224.398438 120.300781 224.398438 L 136.800781 224.398438 Z M 219.601562 128.21875 C 219.121094 127.738281 203.21875 115.859375 184.378906 101.761719 L 150 76.078125 L 115.679688 101.761719 C 96.78125 115.859375 80.878906 127.738281 80.398438 128.160156 C 79.679688 128.878906 90.71875 129 150 129 C 208.859375 129 220.320312 128.878906 219.601562 128.21875 Z M 219.601562 128.21875 "/>
</g>
</svg>
